<svg version="1.1" xmlns="http://www.w3.org/2000/svg" height="1024" width="1024" viewBox="0 0 1024 1024"><path d="M179.5 447.9c0.4-1.5 0.7-2.9 1.1-4.4 12.4-52 10.5-106.5 20.2-159.1C220.6 176.9 292.7 78.7 392.5 34s224.7-31.6 309 38.1c73.1 60.5 110.7 155.6 120.1 250 0.9 9 1.5 18.4-2 26.8-3.7 8.9-11.5 15.3-19 21.3L541.4 578.1c-10.3 8.2-21.1 16.7-34.1 18.9-18.8 3.2-36.9-7.6-53-17.9-40.6-26-81.2-52.1-121.7-78.1-12.9-8.3-28.3-16.9-42.7-13.2-1.7 0.4-2.3 2.7-1.1 4l196.1 225.1c8.1 9.2 18.2 19.4 30.4 17.9 8.2-1 14.7-7.1 20.5-12.9l286.7-283.6c1.2-1.2 3.2-0.8 3.9 0.7C882 557.6 938.5 681.6 935.7 812.6c-0.1 4.5-0.5 9.6-3.9 12.6-6.2 5.6-15.8-0.3-21.9-6L839.3 753c-1.5-1.4-3.9-0.4-4 1.6-5 70.6-38 138.8-90.2 186.5-1.5 1.4-0.8 3.8 1.2 4.1 19.4 3.3 39 8.1 54.6 20 16.4 12.5 26.9 34.9 20.2 54.2-0.3 1-1.3 1.7-2.4 1.7l-126.6-0.1c-42.8 0-85.6 0-128.4-0.1-42.8 0-85.6 0-128.4-0.1s-85.6 0-128.4-0.1H210.6c-5.5 0-19 2.4-20.3-5.8-1-6.2 5.5-15.6 8.6-20.6 4.1-6.6 9-12.7 14.5-18.2 11.1-10.9 24.7-19.3 39.5-24 1.4-0.4 14.4-3.3 19.5-3.9 1.2-0.2 2.1-1.2 2.1-2.4 0.3-25.7-22.1-45.8-39.1-65.6-22.3-26-37.6-57.8-44-91.4-2.7-14.3-6.7-32.3-20.1-36.4-1.1-0.3-2.4 0.3-2.9 1.3-13.3 28.1-31.1 54.2-52.4 76.8-4.6 4.9-12.2 9.8-17.2 5.3-2.5-2.2-3-5.8-3.3-9-8-80.4 2.5-162.6 30.4-238.4 17.2-47.1 41.2-92 53.6-140.5z" fill="#0BB2FF"></path></svg>