<?xml version="1.0" encoding="UTF-8"?><svg xmlns="http://www.w3.org/2000/svg" viewBox="0 0 73.71 65.03"><defs><style>.cls-1 {fill: #09bb07;}</style></defs><g id="bg"><path class="cls-1" d="M26.81,41.14c-.33,.17-.71,.26-1.11,.26-.92,0-1.72-.51-2.14-1.26l-.16-.35-6.71-14.72c-.07-.16-.12-.34-.12-.52,0-.68,.55-1.23,1.23-1.23,.28,0,.53,.09,.74,.24l7.92,5.64c.58,.38,1.27,.6,2.01,.6,.44,0,.87-.08,1.26-.23L66.96,13.01C60.29,5.14,49.29,0,36.85,0,16.5,0,0,13.75,0,30.71c0,9.25,4.96,17.58,12.73,23.21,.62,.45,1.03,1.18,1.03,2,0,.27-.06,.52-.13,.78-.62,2.32-1.61,6.02-1.66,6.2-.08,.29-.2,.59-.2,.9,0,.68,.55,1.23,1.23,1.23,.27,0,.48-.1,.71-.23l8.07-4.66c.61-.35,1.25-.57,1.96-.57,.38,0,.74,.06,1.08,.16,3.76,1.08,7.82,1.68,12.03,1.68,20.35,0,36.85-13.75,36.85-30.71,0-5.14-1.52-9.98-4.2-14.23L27.08,40.98l-.27,.16Z"/></g></svg>